<?xml version="1.0" encoding="UTF-8"?>
<svg id="Layer_1" data-name="Layer 1" xmlns="http://www.w3.org/2000/svg" viewBox="0 0 75.03 74.9">
  <path d="m27.29,1.36l-.73.21v62.6c-1.6-.65-3.15-1.46-4.64-2.41V3.28l-1.46.75c-1.61.83-3.13,1.75-4.52,2.73-.75.52-1.5,1.1-2.3,1.76-1.84,1.51-3.55,3.22-5.08,5.07-.67.83-1.24,1.58-1.74,2.29-.99,1.39-1.91,2.91-2.72,4.51-1.12,2.18-2.03,4.48-2.68,6.82-.62,2.19-1.05,4.48-1.26,6.82-.1,1.12-.15,2.26-.15,3.41s.05,2.29.15,3.41c.22,2.34.64,4.64,1.26,6.82.66,2.35,1.56,4.64,2.68,6.82.82,1.6,1.74,3.12,2.73,4.52l1.81,2.55v-24.12c0-1.08.06-2.16.17-3.21.25-2.24.75-4.39,1.48-6.42.74-2.1,1.74-4.14,2.99-6.06v44.33l.36.3c.8.65,1.55,1.23,2.3,1.75,1.39.98,2.91,1.9,4.52,2.73,2.2,1.12,4.49,2.02,6.82,2.67,2.24.64,4.54,1.06,6.83,1.26l1.09.1V0l-1.09.1c-2.29.2-4.59.63-6.83,1.26Z"/>
  <path d="m74.88,34.04c-.22-2.34-.64-4.63-1.26-6.82-.66-2.35-1.56-4.64-2.68-6.82-.82-1.61-1.74-3.13-2.72-4.51-.5-.72-1.07-1.47-1.75-2.3-1.53-1.85-3.24-3.55-5.07-5.06-.72-.6-1.5-1.19-2.3-1.76-1.44-1.02-2.96-1.94-4.52-2.73-2.2-1.12-4.49-2.02-6.82-2.67-2.24-.64-4.54-1.06-6.83-1.26l-1.09-.1v74.9l1.09-.1c2.29-.2,4.59-.63,6.83-1.26l.73-.21V10.73c1.6.65,3.15,1.47,4.64,2.42v58.46l1.45-.74c1.56-.8,3.08-1.72,4.52-2.73.81-.57,1.59-1.16,2.31-1.76l.36-.3V21.76c1.24,1.9,2.24,3.94,2.99,6.07.73,2.02,1.22,4.18,1.48,6.41.12,1.05.17,2.13.17,3.21v24.12l1.81-2.55c.99-1.39,1.91-2.91,2.72-4.51,1.12-2.18,2.03-4.48,2.68-6.82.62-2.19,1.05-4.48,1.26-6.82.1-1.12.15-2.27.15-3.41s-.05-2.29-.15-3.41Z"/>
</svg>